<svg width="53" height="51" viewBox="0 0 53 51" fill="none" xmlns="http://www.w3.org/2000/svg">
<path d="M26.5 0.104248C11.8587 0.104248 0 11.7642 0 26.1449C0 37.6525 7.59225 47.4112 18.1194 50.8517C19.4444 51.0969 19.9302 50.2908 19.9302 49.5996C19.9302 48.9813 19.9081 47.3427 19.8971 45.1719C12.5257 46.742 10.971 41.6783 10.971 41.6783C9.76525 38.6728 8.02287 37.869 8.02287 37.869C5.62242 36.2547 8.20837 36.2878 8.20837 36.2878C10.8694 36.4689 12.2673 38.9709 12.2673 38.9709C14.6302 42.9525 18.4705 41.802 19.9854 41.1373C20.2239 39.4523 20.9063 38.3062 21.6637 37.6548C15.7785 37.0033 9.593 34.764 9.593 24.7868C9.593 21.9447 10.6199 19.6215 12.3203 17.7996C12.0222 17.1415 11.1278 14.4937 12.5522 10.9074C12.5522 10.9074 14.7715 10.2096 19.8397 13.5773C21.9597 12.9987 24.2122 12.7116 26.4647 12.6984C28.7172 12.7116 30.9697 12.9987 33.0897 13.5773C38.1247 10.2096 40.344 10.9074 40.344 10.9074C41.7684 14.4937 40.874 17.1415 40.609 17.7996C42.2984 19.6215 43.3253 21.9447 43.3253 24.7868C43.3253 34.7905 37.1309 36.9922 31.2347 37.6327C32.1622 38.4144 33.0234 40.011 33.0234 42.4513C33.0234 45.936 32.9903 48.7362 32.9903 49.582C32.9903 50.2643 33.454 51.0792 34.8122 50.8186C45.4144 47.4001 53 37.6349 53 26.1449C53 11.7642 41.1346 0.104248 26.5 0.104248Z" fill="#2A2E2D"/>
</svg>
