<svg width="53" height="53" viewBox="0 0 53 53" fill="none" xmlns="http://www.w3.org/2000/svg">
<path d="M26.5 0C11.8667 0 0 11.8667 0 26.5C0 41.1333 11.8667 53 26.5 53C41.1333 53 53 41.1333 53 26.5C53 11.8667 41.1333 0 26.5 0ZM18.7994 40.0605H12.3455V20.6437H18.7994V40.0605ZM15.5726 17.9923H15.5306C13.3648 17.9923 11.9641 16.5014 11.9641 14.6382C11.9641 12.7328 13.4077 11.2832 15.6155 11.2832C17.8233 11.2832 19.1819 12.7328 19.224 14.6382C19.224 16.5014 17.8233 17.9923 15.5726 17.9923ZM42.071 40.0605H35.6179V29.673C35.6179 27.0625 34.6834 25.2821 32.3482 25.2821C30.5654 25.2821 29.5036 26.483 29.0369 27.6423C28.8663 28.0572 28.8247 28.637 28.8247 29.2173V40.0605H22.3711C22.3711 40.0605 22.4556 22.4653 22.3711 20.6437H28.8247V23.3929C29.6823 22.0699 31.2168 20.188 34.6409 20.188C38.8871 20.188 42.071 22.9631 42.071 28.927V40.0605Z" fill="#2A2E2D"/>
</svg>
